<?xml version="1.0" standalone="no"?>
<!DOCTYPE svg PUBLIC "-//W3C//DTD SVG 20010904//EN"
 "http://www.w3.org/TR/2001/REC-SVG-20010904/DTD/svg10.dtd">
<svg version="1.0" xmlns="http://www.w3.org/2000/svg"
 width="1024.000000pt" height="1024.000000pt" viewBox="0 0 1024.000000 1024.000000"
 preserveAspectRatio="xMidYMid meet">
<metadata>
Created by potrace 1.14, written by Peter Selinger 2001-2017
</metadata>
<g transform="translate(0.000000,1024.000000) scale(0.100000,-0.100000)"
fill="#000000" stroke="none">
<path d="M0 5115 l0 -2925 5120 0 5120 0 0 2925 0 2925 -5120 0 -5120 0 0
-2925z m5403 1901 c428 -129 679 -511 771 -1173 39 -276 39 -726 1 -1018 -90
-691 -379 -1101 -843 -1197 -82 -17 -122 -19 -257 -15 -207 6 -306 32 -460
120 -84 48 -242 202 -304 297 -204 313 -303 794 -288 1400 6 258 24 428 63
619 115 556 387 893 794 982 69 15 117 18 260 15 155 -3 185 -6 263 -30z
m2840 19 c392 -68 677 -299 753 -610 25 -101 25 -319 1 -400 -62 -201 -203
-358 -465 -517 -46 -27 -82 -51 -80 -53 2 -2 46 -25 98 -52 242 -123 432 -297
523 -478 67 -134 95 -304 78 -462 -15 -130 -40 -214 -97 -321 -122 -232 -333
-396 -614 -478 -264 -77 -657 -72 -899 11 -281 96 -491 281 -590 520 -52 124
-65 194 -64 355 0 172 18 254 85 383 77 150 323 368 516 456 28 14 52 27 52
30 0 3 -21 17 -47 31 -162 85 -306 212 -376 331 -21 35 -50 100 -64 144 -25
74 -27 93 -27 250 -1 192 10 250 70 373 126 259 402 440 754 495 67 11 315 6
393 -8z m-5134 -47 c0 -7 -13 -78 -28 -158 l-27 -145 -660 -5 -659 -5 -3 -524
c-2 -496 -1 -523 15 -518 10 3 54 21 99 41 104 46 207 72 341 87 478 51 855
-194 985 -641 48 -165 63 -451 33 -623 -74 -423 -339 -726 -737 -841 -119 -34
-216 -46 -382 -46 -238 0 -416 42 -608 142 -96 50 -279 180 -328 233 l-25 26
125 118 125 118 65 -55 c205 -175 395 -245 660 -244 228 0 357 48 490 182 87
86 127 156 164 282 49 169 54 444 10 611 -39 153 -139 286 -261 350 -99 51
-183 68 -328 68 -142 0 -231 -16 -397 -72 -117 -39 -119 -39 -273 -39 l-155 0
0 835 0 835 880 0 c698 0 880 -3 879 -12z m5444 -3725 c4 -2 7 -200 7 -439 l0
-434 -44 0 c-42 0 -44 1 -50 35 l-7 36 -32 -27 c-47 -39 -89 -54 -155 -54 -42
0 -71 7 -103 23 -161 85 -173 455 -19 578 74 59 182 63 262 9 l43 -29 3 160 3
161 42 -7 c23 -4 45 -9 50 -12z m614 -261 c83 -43 130 -130 135 -252 l3 -65
-214 -3 -214 -2 7 -46 c15 -110 71 -166 171 -172 53 -4 73 0 121 22 l58 27 18
-23 c26 -34 19 -50 -36 -78 -74 -36 -202 -41 -274 -10 -106 45 -163 152 -163
300 0 164 71 279 201 321 42 14 142 3 187 -19z m502 -244 c47 -141 89 -259 93
-263 3 -3 46 113 94 259 l89 266 52 0 53 0 -32 -87 c-17 -49 -68 -189 -114
-313 l-81 -225 -63 0 -62 0 -109 305 c-60 167 -109 308 -109 313 0 4 23 7 52
5 l51 -3 86 -257z m-2003 -202 c38 -38 44 -77 19 -126 -19 -37 -43 -50 -92
-50 -47 0 -76 19 -93 59 -28 70 24 151 97 151 27 0 43 -8 69 -34z"/>
<path d="M5020 6719 c-70 -12 -181 -67 -242 -119 -102 -88 -199 -268 -248
-460 -92 -361 -105 -1048 -29 -1509 11 -68 24 -133 29 -145 6 -17 106 176 514
997 278 560 506 1024 506 1031 0 23 -126 132 -182 158 -98 46 -242 66 -348 47z"/>
<path d="M5183 5180 c-277 -561 -503 -1026 -503 -1033 0 -22 111 -122 166
-150 75 -38 162 -57 261 -57 153 0 260 44 363 149 199 202 281 499 305 1111 7
178 -9 547 -30 712 -17 129 -44 270 -53 280 -4 4 -233 -452 -509 -1012z"/>
<path d="M7885 6730 c-139 -22 -266 -86 -338 -171 -129 -150 -166 -423 -83
-605 67 -145 211 -236 573 -360 l112 -39 33 19 c176 101 320 233 374 340 36
74 63 193 63 276 0 80 -26 197 -61 267 -62 126 -181 219 -333 258 -74 19 -260
27 -340 15z"/>
<path d="M7745 5258 c-156 -92 -301 -230 -354 -337 -56 -110 -74 -197 -75
-361 -1 -114 3 -158 17 -204 31 -100 76 -177 141 -241 71 -70 150 -115 261
-147 118 -34 422 -34 540 0 118 34 190 77 276 162 140 138 198 313 170 511
-32 229 -155 366 -441 493 -99 43 -430 166 -449 166 -9 0 -47 -19 -86 -42z"/>
<path d="M8266 2940 c-81 -25 -121 -115 -114 -264 7 -159 58 -224 167 -214 45
5 59 11 97 49 l44 43 0 157 0 157 -35 30 c-19 17 -51 36 -72 41 -43 12 -48 12
-87 1z"/>
<path d="M8997 2936 c-65 -24 -97 -67 -112 -148 l-7 -38 167 0 168 0 -7 43
c-19 117 -109 179 -209 143z"/>
</g>
</svg>
